HIERARCHY
ROOT Junyuan_V1:Solving:Hips
{
	OFFSET 0.000000 0.000000 0.000000
	CHANNELS 6 Xposition Yposition Zposition Xrotation Yrotation Zrotation
	JOINT Junyuan_V1:Solving:Spine
	{
		OFFSET 0.000000 -11.180205 2.228564
		CHANNELS 6 Xposition Yposition Zposition Xrotation Yrotation Zrotation
		JOINT Junyuan_V1:Solving:Spine1
		{
			OFFSET 0.000000 -8.682996 1.531049
			CHANNELS 6 Xposition Yposition Zposition Xrotation Yrotation Zrotation
			JOINT Junyuan_V1:Solving:Spine2
			{
				OFFSET 0.000000 -8.783394 0.768450
				CHANNELS 6 Xposition Yposition Zposition Xrotation Yrotation Zrotation
				JOINT Junyuan_V1:Solving:Spine3
				{
					OFFSET 0.000000 -8.816944 0.000000
					CHANNELS 6 Xposition Yposition Zposition Xrotation Yrotation Zrotation
					JOINT Junyuan_V1:Solving:Neck
					{
						OFFSET 0.000000 -11.336071 -1.133605
						CHANNELS 6 Xposition Yposition Zposition Xrotation Yrotation Zrotation
						JOINT Junyuan_V1:Solving:Neck1
						{
							OFFSET 0.000000 -7.643246 -0.668695
							CHANNELS 6 Xposition Yposition Zposition Xrotation Yrotation Zrotation
							JOINT Junyuan_V1:Solving:Head
							{
								OFFSET 0.000000 -7.555870 -1.332303
								CHANNELS 6 Xposition Yposition Zposition Xrotation Yrotation Zrotation
								JOINT Junyuan_V1:Solving:HeadEnd
								{
									OFFSET 0.000000 -9.728081 0.000002
									CHANNELS 6 Xposition Yposition Zposition Xrotation Yrotation Zrotation
									End Site
									{
										OFFSET 0.000000 -9.728081 0.000002
									}
								}
							}
						}
					}
					JOINT Junyuan_V1:Solving:RightShoulder
					{
						OFFSET 0.000000 -8.097195 -5.270916
						CHANNELS 6 Xposition Yposition Zposition Xrotation Yrotation Zrotation
						JOINT Junyuan_V1:Solving:RightArm
						{
							OFFSET -20.762394 -0.000008 0.000000
							CHANNELS 6 Xposition Yposition Zposition Xrotation Yrotation Zrotation
							JOINT Junyuan_V1:Solving:RightForeArm
							{
								OFFSET -29.048946 -0.000008 0.000000
								CHANNELS 6 Xposition Yposition Zposition Xrotation Yrotation Zrotation
								JOINT Junyuan_V1:Solving:RightHand
								{
									OFFSET -22.031235 -0.000008 0.000000
									CHANNELS 6 Xposition Yposition Zposition Xrotation Yrotation Zrotation
									JOINT Junyuan_V1:Solving:RightHandThumb1
									{
										OFFSET -3.579254 2.890213 -2.661497
										CHANNELS 6 Xposition Yposition Zposition Xrotation Yrotation Zrotation
										End Site
										{
											OFFSET -5.229485 0.000000 -5.277840
										}
									}
									JOINT Junyuan_V1:Solving:RightHandMiddle1
									{
										OFFSET -9.544678 -0.000004 0.061184
										CHANNELS 6 Xposition Yposition Zposition Xrotation Yrotation Zrotation
										End Site
										{
											OFFSET -7.429878 -0.000004 0.000000
										}
									}
								}
							}
						}
					}
					JOINT Junyuan_V1:Solving:LeftShoulder
					{
						OFFSET 0.000000 -8.097195 -5.270916
						CHANNELS 6 Xposition Yposition Zposition Xrotation Yrotation Zrotation
						JOINT Junyuan_V1:Solving:LeftArm
						{
							OFFSET 20.762394 -0.000008 0.000000
							CHANNELS 6 Xposition Yposition Zposition Xrotation Yrotation Zrotation
							JOINT Junyuan_V1:Solving:LeftForeArm
							{
								OFFSET 29.048946 -0.000008 0.000000
								CHANNELS 6 Xposition Yposition Zposition Xrotation Yrotation Zrotation
								JOINT Junyuan_V1:Solving:LeftHand
								{
									OFFSET 22.031235 -0.000008 0.000000
									CHANNELS 6 Xposition Yposition Zposition Xrotation Yrotation Zrotation
									JOINT Junyuan_V1:Solving:LeftHandThumb1
									{
										OFFSET 3.579254 2.890213 -2.661497
										CHANNELS 6 Xposition Yposition Zposition Xrotation Yrotation Zrotation
										End Site
										{
											OFFSET 5.229485 0.000000 -5.277840
										}
									}
									JOINT Junyuan_V1:Solving:LeftHandMiddle1
									{
										OFFSET 9.544678 -0.000004 0.061184
										CHANNELS 6 Xposition Yposition Zposition Xrotation Yrotation Zrotation
										End Site
										{
											OFFSET 7.429878 -0.000004 0.000000
										}
									}
								}
							}
						}
					}
				}
			}
		}
	}
	JOINT Junyuan_V1:Solving:RightUpLeg
	{
		OFFSET -10.825166 0.000000 0.000000
		CHANNELS 6 Xposition Yposition Zposition Xrotation Yrotation Zrotation
		JOINT Junyuan_V1:Solving:RightLeg
		{
			OFFSET 0.000000 43.678444 -0.000006
			CHANNELS 6 Xposition Yposition Zposition Xrotation Yrotation Zrotation
			JOINT Junyuan_V1:Solving:RightFoot
			{
				OFFSET 0.000000 36.488441 -0.000006
				CHANNELS 6 Xposition Yposition Zposition Xrotation Yrotation Zrotation
				JOINT Junyuan_V1:Solving:RightForeFoot
				{
					OFFSET 0.000000 3.967834 -0.000000
					CHANNELS 6 Xposition Yposition Zposition Xrotation Yrotation Zrotation
					JOINT Junyuan_V1:Solving:RightToeBase
					{
						OFFSET 0.000000 0.000000 -15.539299
						CHANNELS 6 Xposition Yposition Zposition Xrotation Yrotation Zrotation
						JOINT Junyuan_V1:Solving:RightToeBaseEnd
						{
							OFFSET 0.000000 0.000000 -3.486985
							CHANNELS 6 Xposition Yposition Zposition Xrotation Yrotation Zrotation
							End Site
							{
								OFFSET 0.000000 -3.486992 0.000000
							}
						}
					}
				}
			}
		}
	}
	JOINT Junyuan_V1:Solving:LeftUpLeg
	{
		OFFSET 10.825166 0.000000 0.000000
		CHANNELS 6 Xposition Yposition Zposition Xrotation Yrotation Zrotation
		JOINT Junyuan_V1:Solving:LeftLeg
		{
			OFFSET 0.000000 43.678444 -0.000006
			CHANNELS 6 Xposition Yposition Zposition Xrotation Yrotation Zrotation
			JOINT Junyuan_V1:Solving:LeftFoot
			{
				OFFSET 0.000000 36.488441 -0.000006
				CHANNELS 6 Xposition Yposition Zposition Xrotation Yrotation Zrotation
				JOINT Junyuan_V1:Solving:LeftForeFoot
				{
					OFFSET 0.000000 3.967834 -0.000000
					CHANNELS 6 Xposition Yposition Zposition Xrotation Yrotation Zrotation
					JOINT Junyuan_V1:Solving:LeftToeBase
					{
						OFFSET 0.000000 0.000000 -15.539299
						CHANNELS 6 Xposition Yposition Zposition Xrotation Yrotation Zrotation
						JOINT Junyuan_V1:Solving:LeftToeBaseEnd
						{
							OFFSET 0.000000 0.000000 -3.974441
							CHANNELS 6 Xposition Yposition Zposition Xrotation Yrotation Zrotation
							End Site
							{
								OFFSET 0.000000 -3.974442 0.000000
							}
						}
					}
				}
			}
		}
	}
}
MOTION
Frames: 4
Frame Time: 0.041667
27.006214 -14.109709 -79.383698 45.730828 188.427434 1.449729 0.000006 -11.180195 2.228571 13.145204 0.605729 0.773591 -0.000002 -8.682966 1.531058 15.320215 -0.007824 0.606368 -0.000001 -8.783402 0.768444 25.514245 -3.620085 1.123319 -0.000001 -8.816942 -0.000004 -8.390026 -0.118670 -1.074770 -0.000003 -11.336061 -1.133621 -38.773618 -6.547672 2.747487 0.000000 -7.643239 -0.668717 7.040578 3.947510 -0.879215 0.000002 -7.555873 -1.332320 2.658949 0.221758 0.136545 -0.000001 -9.728096 0.000026 0.000000 -0.000000 -0.000000 -0.000007 -8.097179 -5.270926 0.000002 7.535152 21.827278 -20.762396 -0.000016 -0.000008 -80.648101 -15.153640 -89.816817 -29.048948 -0.000003 -0.000007 -24.007671 -22.824057 -9.802066 -22.031237 -0.000001 -0.000004 3.687145 -6.121485 31.145253 -3.579258 2.890219 -2.661513 0.000006 -0.000000 0.000004 -9.544689 0.000007 0.061176 0.000007 0.000004 0.000005 -0.000006 -8.097179 -5.270926 -0.000003 -14.082031 -21.716880 20.762400 -0.000017 0.000000 -93.908298 24.362747 89.486529 29.048958 -0.000014 0.000000 -60.672488 10.173155 17.452388 22.031237 -0.000015 -0.000016 3.523297 8.672605 -22.211541 3.579257 2.890207 -2.661490 0.000006 0.000002 -0.000006 9.544702 -0.000003 0.061175 0.000002 -0.000006 0.000002 -10.825169 0.000007 0.000009 -95.089484 31.966846 23.694041 -0.000004 43.678440 0.000013 60.693211 0.000003 0.000001 0.000001 36.488434 -0.000005 8.422218 2.849335 -7.845075 0.000003 3.967827 -0.000022 0.000003 -0.000002 -0.000001 -0.000002 -0.000009 -15.539292 13.350671 0.000003 -0.000005 0.000002 -0.000007 -3.486985 0.000004 -0.000004 0.000005 10.825167 0.000003 0.000009 -89.830054 -18.056309 -23.673139 0.000005 43.678440 0.000016 49.767040 -0.000002 0.000001 0.000000 36.488434 -0.000014 -2.303049 -1.654171 1.476295 0.000001 3.967819 0.000001 -0.000000 -0.000000 0.000001 0.000001 0.000001 -15.539295 -1.258751 -0.000003 0.000001 0.000003 -0.000007 -3.974433 0.000001 0.000000 -0.000000 
27.291859 -14.120982 -79.390358 45.664087 188.283631 1.494088 -0.000004 -11.180211 2.228556 13.123565 0.555726 0.740477 0.000006 -8.682971 1.531045 15.468089 0.002417 0.564762 0.000002 -8.783401 0.768448 25.477280 -3.696872 0.867229 0.000003 -8.816951 0.000021 -8.429401 -0.151903 -0.963368 -0.000004 -11.336084 -1.133602 -38.716780 -6.457526 2.638491 -0.000003 -7.643246 -0.668708 6.991285 3.923012 -0.633407 0.000002 -7.555842 -1.332312 2.668821 0.219593 0.171507 0.000002 -9.728088 0.000006 0.000000 0.000000 0.000000 -0.000005 -8.097198 -5.270919 0.000007 7.599199 21.973465 -20.762394 -0.000018 -0.000012 -80.775491 -14.510211 -89.626173 -29.048952 -0.000012 -0.000010 -24.240864 -22.837439 -9.912867 -22.031231 -0.000021 -0.000006 3.713341 -6.100917 31.410995 -3.579258 2.890215 -2.661485 0.000005 -0.000005 -0.000005 -9.544708 0.000001 0.061187 0.000001 -0.000001 -0.000010 -0.000001 -8.097198 -5.270918 0.000002 -14.047822 -21.639923 20.762394 -0.000012 0.000032 -93.943501 24.557669 89.340309 29.048952 -0.000016 0.000003 -60.770235 10.129031 17.447426 22.031227 -0.000014 0.000018 3.668503 8.917841 -22.469980 3.579259 2.890211 -2.661473 0.000005 0.000002 -0.000004 9.544688 -0.000003 0.061200 0.000002 -0.000002 0.000003 -10.825171 -0.000013 -0.000005 -94.044171 30.049069 23.041530 -0.000011 43.678444 0.000015 59.316163 0.000012 -0.000000 0.000003 36.488426 -0.000012 7.071229 3.557154 -8.910168 0.000000 3.967835 -0.000000 0.000004 0.000001 -0.000000 0.000008 0.000005 -15.539298 11.909504 -0.000001 -0.000000 0.000001 -0.000007 -3.486992 0.000003 0.000003 0.000002 10.825159 -0.000012 -0.000010 -89.820457 -17.930744 -23.676610 -0.000001 43.678440 0.000002 49.578062 0.000001 0.000002 0.000002 36.488419 -0.000010 -2.155872 -1.675453 1.586494 0.000001 3.967827 -0.000002 -0.000000 -0.000000 0.000000 0.000002 0.000001 -15.539297 -1.302250 -0.000006 0.000000 -0.000004 -0.000007 -3.974445 0.000000 -0.000002 -0.000000 
27.665075 -14.130291 -79.359940 45.638091 188.061472 1.686891 0.000003 -11.180209 2.228553 13.149716 0.616777 0.678576 -0.000004 -8.683001 1.531053 15.520927 0.004119 0.560674 0.000000 -8.783398 0.768458 25.421028 -3.865073 0.488316 0.000006 -8.816955 0.000006 -8.399227 -0.212886 -0.835866 -0.000003 -11.336073 -1.133599 -38.728556 -6.471135 2.640988 -0.000000 -7.643229 -0.668689 7.048885 3.911243 -0.590514 -0.000001 -7.555902 -1.332303 2.711303 0.219713 0.174271 -0.000001 -9.728065 -0.000003 0.000005 -0.000000 -0.000000 -0.000002 -8.097206 -5.270919 0.000008 7.654093 22.124579 -20.762394 -0.000018 -0.000010 -80.864522 -13.702364 -89.445862 -29.048937 -0.000016 -0.000006 -24.205560 -22.990222 -9.958260 -22.031233 -0.000007 -0.000018 3.659969 -5.981374 31.543610 -3.579257 2.890195 -2.661501 0.000006 -0.000009 0.000005 -9.544685 -0.000009 0.061180 0.000002 -0.000004 -0.000000 0.000004 -8.097206 -5.270918 0.000002 -14.082923 -21.561744 20.762392 -0.000008 0.000014 -93.930462 24.779564 89.191834 29.048954 -0.000015 0.000006 -60.220535 10.205381 17.203855 22.031233 -0.000012 0.000001 3.628804 8.990468 -22.088955 3.579281 2.890217 -2.661479 0.000004 -0.000002 -0.000006 9.544703 -0.000003 0.061203 0.000003 -0.000002 0.000003 -10.825157 -0.000011 -0.000004 -93.194940 28.537181 22.738045 0.000003 43.678444 0.000001 58.074824 0.000001 0.000007 -0.000011 36.488441 -0.000011 5.886219 3.789591 -8.503729 -0.000004 3.967827 0.000001 -0.000002 -0.000001 -0.000001 -0.000003 -0.000013 -15.539310 10.239270 0.000001 0.000001 -0.000010 -0.000007 -3.486981 0.000004 0.000005 -0.000000 10.825167 -0.000007 -0.000003 -89.835456 -17.555058 -23.648511 0.000007 43.678440 0.000002 49.501506 0.000001 0.000002 -0.000001 36.488445 -0.000007 -1.915773 -1.711589 1.767949 0.000000 3.967827 -0.000005 -0.000000 -0.000000 -0.000000 0.000001 -0.000010 -15.539295 -1.341346 -0.000003 -0.000000 -0.000002 -0.000007 -3.974433 0.000001 -0.000001 -0.000000 
27.994953 -14.165059 -79.325882 45.715197 187.798824 1.701769 -0.000008 -11.180227 2.228575 13.121750 0.637395 0.642734 -0.000002 -8.683012 1.531063 15.772703 0.011292 0.540730 0.000002 -8.783399 0.768452 25.502215 -3.866345 0.249324 -0.000001 -8.816944 0.000028 -8.491349 -0.211900 -0.773140 0.000000 -11.336055 -1.133605 -38.671390 -6.477386 2.660875 -0.000003 -7.643251 -0.668696 7.021466 3.897738 -0.596825 -0.000003 -7.555886 -1.332313 2.687760 0.219566 0.170954 0.000003 -9.728088 0.000001 0.000006 -0.000000 0.000000 0.000001 -8.097191 -5.270930 0.000005 7.743162 22.317121 -20.762398 -0.000008 0.000001 -81.050406 -12.809030 -89.332406 -29.048935 -0.000024 0.000004 -24.534145 -23.121789 -10.161782 -22.031244 -0.000026 -0.000002 3.746436 -6.060317 31.808696 -3.579246 2.890207 -2.661485 -0.000001 -0.000009 0.000011 -9.544680 -0.000003 0.061187 -0.000004 -0.000004 -0.000002 0.000003 -8.097187 -5.270930 -0.000000 -14.100793 -21.492305 20.762390 -0.000002 0.000014 -93.829526 25.126483 88.890486 29.048941 -0.000016 -0.000001 -60.710123 10.170988 17.474151 22.031246 -0.000015 0.000002 3.755605 9.135469 -22.462317 3.579267 2.890217 -2.661465 0.000000 -0.000002 -0.000003 9.544678 -0.000001 0.061201 0.000000 -0.000002 -0.000000 -10.825168 -0.000016 0.000000 -92.310253 26.978422 22.625000 -0.000010 43.678440 0.000009 56.721842 0.000010 -0.000001 0.000000 36.488445 -0.000011 5.032798 4.088650 -7.700701 0.000001 3.967819 -0.000010 0.000004 -0.000004 0.000002 -0.000010 -0.000005 -15.539303 9.185191 -0.000000 -0.000002 -0.000003 0.000001 -3.486980 0.000004 0.000003 -0.000001 10.825156 -0.000030 0.000010 -89.600286 -17.320803 -23.482289 0.000001 43.678452 0.000002 49.358874 -0.000001 0.000002 -0.000000 36.488453 -0.000003 -1.737537 -1.806550 1.962311 -0.000002 3.967827 0.000006 0.000000 0.000003 0.000000 0.000003 0.000000 -15.539297 -1.235231 -0.000006 0.000000 0.000001 -0.000008 -3.974431 -0.000000 -0.000001 0.000000 
